<?xml version="1.0" encoding="UTF-8"?>
<svg width="110px" height="35px" viewBox="0 0 110 35" version="1.1" xmlns="http://www.w3.org/2000/svg" xmlns:xlink="http://www.w3.org/1999/xlink">
    <!-- Generator: Sketch 49 (51002) - http://www.bohemiancoding.com/sketch -->
    <title>Group 8</title>
    <desc>Created with Sketch.</desc>
    <defs></defs>
    <g id="Page-1" stroke="none" stroke-width="1" fill="none" fill-rule="evenodd">
        <g id="Artboard-3" transform="translate(-75.000000, -64.000000)">
            <g id="Group-8" transform="translate(75.000000, 64.000000)">
                <path d="M40.0512821,20.7098371 L22.779702,20.7098371 C22.6527051,20.7098371 22.5680405,20.8367934 22.5680405,20.9637496 L22.5680405,23.0373683 C22.5680405,26.2535931 24.3036649,27.8617055 28.0289077,27.8617055 C31.5424889,27.8617055 33.2781134,26.7190993 33.2781134,24.3915682 L33.2781134,24.1799744 L39.8396205,24.1799744 L39.8396205,25.1109869 C39.8396205,30.1892367 35.6910547,33.8709677 27.8172462,33.8709677 C19.7317761,33.8709677 15.7948718,29.9776429 15.7948718,23.756787 L15.7948718,14.3197062 C15.7948718,7.88725647 19.9434376,3.9516129 27.8172462,3.9516129 C35.6910547,3.9516129 39.8396205,7.84493772 39.8396205,14.3197062 L39.8396205,20.7521559 L40.0512821,20.7521559 L40.0512821,20.7098371 Z M22.5257081,16.0970936 L33.2357811,16.0970936 L33.2357811,14.4889812 C33.2357811,11.2727563 31.5001566,9.66464388 27.7749139,9.66464388 C24.0496711,9.66464388 22.3140466,11.2727563 22.3140466,14.4889812 L22.3140466,16.0970936 L22.5257081,16.0970936 Z" id="Shape" fill="#F05B72" fill-rule="nonzero"></path>
                <path d="M44.0423834,23.7981821 C44.0423834,18.2622562 47.5602037,15.5154228 54.5534609,15.5154228 C57.1388468,15.5154228 59.3003991,15.7267177 61.0381175,16.4028613 C61.0805009,16.4028613 61.1228843,16.4028613 61.1228843,16.3183434 L61.1228843,14.1208766 C61.1228843,12.9798843 60.8262006,11.9656689 60.3176001,11.1627483 C60.1480666,10.8246765 59.8937663,10.5711227 59.5970827,10.4020868 C58.7917985,9.89497904 57.7745975,9.55690724 56.2911793,9.55690724 C53.2819595,9.55690724 51.5018577,10.6978996 51.4594743,12.9376253 C51.4594743,12.9798843 51.417091,13.0221432 51.3747076,13.0221432 L44.9748177,13.0221432 C44.9324343,13.0221432 44.8900509,12.9798843 44.8900509,12.9376253 C44.9324343,6.55651996 48.4502546,3.38709677 56.0792624,3.38709677 L56.9693133,3.38709677 C63.9625705,3.38709677 67.6923077,7.27492254 67.6923077,13.7405458 L67.6923077,23.6291462 C67.6923077,30.0525105 63.3268199,33.3064516 56.0792624,33.3064516 L55.1892115,33.3064516 C48.1959543,33.3064516 44,30.0947695 44,24.0939949 L44,23.7981821 L44.0423834,23.7981821 Z M61.1228843,23.7981821 C61.1228843,21.0513486 59.8089996,19.9103563 56.0792624,19.9103563 C52.5614421,19.9103563 51.0356406,21.0513486 51.0356406,23.7981821 L51.0356406,24.2630308 C51.0356406,26.7985693 52.773359,28.1508566 56.0792624,28.1508566 C59.3851658,28.1508566 61.1228843,26.5450155 61.1228843,24.2630308 L61.1228843,23.7981821 Z" id="Shape" fill="#F05B72" fill-rule="nonzero"></path>
                <path d="M78.3780574,33.3064516 L71.8094514,33.3064516 C71.7252385,33.3064516 71.6410256,33.221611 71.6410256,33.0943502 L71.6410256,13.6658587 C71.6410256,7.68459817 75.1358608,3.9516129 81.8728926,3.9516129 C85.9151116,3.9516129 88.6941372,5.05454037 90.6731403,7.47249674 C90.7573531,7.55733731 90.8836725,7.55733731 90.9678854,7.47249674 C92.904782,5.05454037 95.5153818,3.9516129 99.7681331,3.9516129 C106.715697,3.9516129 110,7.64217789 110,13.6658587 L110,33.0943502 C110,33.221611 109.915787,33.3064516 109.831574,33.3064516 L103.473501,33.3064516 C103.389288,33.3064516 103.305075,33.221611 103.305075,33.0943502 L103.305075,14.3870035 C103.305075,11.6296849 101.789243,10.2298154 98.9681106,10.2298154 C96.1469785,10.2298154 94.6311464,11.6296849 94.6311464,14.3870035 L94.6311464,33.0943502 C94.6311464,33.221611 94.5469335,33.3064516 94.4627206,33.3064516 L88.1046469,33.3064516 C88.020434,33.3064516 87.9362211,33.221611 87.9362211,33.0943502 L87.9362211,14.3870035 C87.9362211,11.6296849 86.420389,10.2298154 83.5992569,10.2298154 C80.5675927,10.2298154 79.2622928,11.6296849 79.2622928,14.3870035 L79.2622928,33.3064516 L78.3780574,33.3064516 Z" id="Shape" fill="#F05B72" fill-rule="nonzero"></path>
                <path d="M9.53652637,3.99403319 C4.25737784,3.99403319 0,8.44816334 0,13.9628007 L0,33.0519299 C0,33.1791908 0.0851475568,33.3064516 0.212868892,33.3064516 L6.68408321,33.3064516 C6.81180455,33.3064516 6.8969521,33.1791908 6.8969521,33.0519299 L6.8969521,13.9628007 C6.8969521,12.39325 8.13159168,11.0782211 9.6642477,11.0782211 L13.3255926,11.0782211 C13.453314,11.0782211 13.5384615,10.9509603 13.5384615,10.8236994 L13.5384615,4.20613463 C13.5384615,4.07887376 13.453314,3.9516129 13.3255926,3.9516129 L9.53652637,3.9516129 L9.53652637,3.99403319 Z" id="Shape" fill="#F05B72" fill-rule="nonzero"></path>
                <path d="M0.564102564,0 L0.564102564,35" id="Shape" stroke="#A4F6FF" stroke-width="0.25"></path>
            </g>
        </g>
    </g>
</svg>