<?xml version="1.0" encoding="UTF-8"?>
<svg width="159px" height="25px" viewBox="0 0 159 25" version="1.1" xmlns="http://www.w3.org/2000/svg" xmlns:xlink="http://www.w3.org/1999/xlink">
    <!-- Generator: Sketch 47 (45396) - http://www.bohemiancoding.com/sketch -->
    <title>meanwise</title>
    <desc>Created with Sketch.</desc>
    <defs></defs>
    <g id="Welcome" stroke="none" stroke-width="1" fill="none" fill-rule="evenodd">
        <g id="Desktop-HD" transform="translate(-641.000000, -58.000000)" fill="#4B8DE0">
            <path d="M641,80.4184783 C641,81.8451087 642.143032,83 643.555012,83 C644.966993,83 646.110024,81.8451087 646.110024,80.4184783 L646.110024,72.6399457 C646.110024,70.1942935 647.286675,68.9375 649.202934,68.9375 C651.119193,68.9375 652.194988,70.1942935 652.194988,72.6399457 L652.194988,80.4184783 C652.194988,81.8451087 653.33802,83 654.75,83 C656.16198,83 657.305012,81.8451087 657.305012,80.4184783 L657.305012,72.6399457 C657.305012,70.1942935 658.481663,68.9375 660.397922,68.9375 C662.314181,68.9375 663.389976,70.1942935 663.389976,72.6399457 L663.389976,80.4184783 C663.389976,81.8451087 664.533007,83 665.944988,83 C667.356968,83 668.5,81.8451087 668.5,80.4184783 L668.5,70.9415761 C668.5,66.5597826 666.213936,64.25 662.415037,64.25 C659.96088,64.25 658.07824,65.2690217 656.498166,67.1372283 C655.556846,65.3029891 653.775061,64.25 651.42176,64.25 C648.83313,64.25 647.286675,65.642663 646.110024,67.1711957 L646.110024,66.9673913 C646.110024,65.5407609 644.966993,64.3858696 643.555012,64.3858696 C642.143032,64.3858696 641,65.5407609 641,66.9673913 L641,80.4184783 Z M676,71.75 L683.5,71.75 C683.20524,69.5131579 681.895197,68 679.799127,68 C677.735808,68 676.393013,69.4802632 676,71.75 Z M686.592734,80.8158602 C685.020076,82.1599462 682.978967,83 680.369025,83 C674.981836,83 671,79.202957 671,73.6922043 L671,73.625 C671,68.483871 674.647228,64.25 679.867113,64.25 C685.856597,64.25 688.5,69.1895161 688.5,72.9193548 C688.5,74.3978495 687.462715,75.3723118 686.124283,75.3723118 L676.052581,75.3723118 C676.554493,77.6908602 678.160612,78.9005376 680.435946,78.9005376 C681.8413,78.9005376 683.012428,78.4637097 684.049713,77.6908602 C684.417782,77.422043 684.75239,77.2876344 685.287763,77.2876344 C686.42543,77.2876344 687.26195,78.1612903 687.26195,79.3037634 C687.26195,79.9758065 686.960803,80.4798387 686.592734,80.8158602 Z M697.064909,83 C693.735801,83 691,81.0298913 691,77.4293478 L691,77.361413 C691,73.3872283 693.93357,71.5529891 698.119675,71.5529891 C699.899594,71.5529891 701.185091,71.8586957 702.437627,72.3002717 L702.437627,71.9945652 C702.437627,69.8546196 701.15213,68.6657609 698.647059,68.6657609 C697.262677,68.6657609 696.141988,68.8695652 695.186105,69.1752717 C694.889452,69.2771739 694.691684,69.3111413 694.460953,69.3111413 C693.307302,69.3111413 692.384381,68.3940217 692.384381,67.205163 C692.384381,66.2880435 692.944726,65.5067935 693.735801,65.201087 C695.317951,64.5896739 697.031947,64.25 699.372211,64.25 C702.108012,64.25 704.0857,64.9972826 705.338235,66.2880435 C706.656694,67.6467391 707.25,69.6508152 707.25,72.0964674 L707.25,80.3845109 C707.25,81.7771739 706.162272,82.8641304 704.810852,82.8641304 C703.360548,82.8641304 702.404665,81.8111413 702.404665,80.7241848 L702.404665,80.6902174 C701.185091,82.0828804 699.504057,83 697.064909,83 Z M697.318069,79.25 C699.514851,79.25 701,77.8670213 701,75.9166667 L701,74.9592199 C700.195545,74.5336879 699.143564,74.25 697.998762,74.25 C695.987624,74.25 694.75,75.1719858 694.75,76.8741135 L694.75,76.9450355 C694.75,78.3989362 695.80198,79.25 697.318069,79.25 Z M711,80.4184783 C711,81.8451087 712.125255,83 713.515275,83 C714.905295,83 716.03055,81.8451087 716.03055,80.4184783 L716.03055,72.6399457 C716.03055,70.1942935 717.255092,68.9375 719.174644,68.9375 C721.094196,68.9375 722.21945,70.1942935 722.21945,72.6399457 L722.21945,80.4184783 C722.21945,81.8451087 723.344705,83 724.734725,83 C726.124745,83 727.25,81.8451087 727.25,80.4184783 L727.25,71.0095109 C727.25,66.8315217 725.032587,64.25 721.226578,64.25 C718.678208,64.25 717.1889,65.642663 716.03055,67.1711957 L716.03055,66.9673913 C716.03055,65.5407609 714.905295,64.3858696 713.515275,64.3858696 C712.125255,64.3858696 711,65.5407609 711,66.9673913 L711,80.4184783 Z M735.867257,83 L736.033186,83 C737.261062,83 738.289823,82.2879747 738.754425,80.7961121 L741.608407,71.6415009 L744.429204,80.7961121 C744.893805,82.2879747 745.922566,83 747.150442,83 L747.316372,83 C748.544248,83 749.573009,82.2879747 750.103982,80.6943942 L754.584071,67.7084087 C754.650442,67.4710669 754.75,66.9963834 754.75,66.6573237 C754.75,65.3688969 753.787611,64.283906 752.393805,64.283906 C751.066372,64.283906 750.303097,65.1654611 749.971239,66.2504521 L747.183628,75.5406872 L744.362832,66.318264 C743.997788,65.0976492 743.068584,64.25 741.774336,64.25 L741.475664,64.25 C740.181416,64.25 739.252212,65.0976492 738.887168,66.318264 L736.099558,75.5067812 L733.378319,66.284358 C733.013274,65.0976492 732.183628,64.283906 730.922566,64.283906 C729.429204,64.283906 728.5,65.4367089 728.5,66.6234177 C728.5,67.0641953 728.632743,67.5727848 728.732301,67.8779385 L733.079646,80.6943942 C733.610619,82.2879747 734.639381,83 735.867257,83 Z M757.25,60.5172414 C757.25,62.0344828 758.610294,63 760.375,63 C762.139706,63 763.5,62.0344828 763.5,60.5172414 L763.5,60.4482759 C763.5,58.9310345 762.139706,58 760.375,58 C758.610294,58 757.25,58.9310345 757.25,60.4482759 L757.25,60.5172414 Z M758.5,80.399635 C758.5,81.8366788 759.618421,83 761,83 C762.381579,83 763.5,81.8366788 763.5,80.399635 L763.5,66.850365 C763.5,65.4133212 762.381579,64.25 761,64.25 C759.618421,64.25 758.5,65.4133212 758.5,66.850365 L758.5,80.399635 Z M773.947248,83 C777.938073,83 781,81.1723827 781,77.1448556 L781,77.0771661 C781,73.7603791 778.006881,72.5419675 775.426606,71.6958484 C773.431193,71.0189531 771.676606,70.5451264 771.676606,69.5297834 L771.676606,69.4620939 C771.676606,68.7513538 772.330275,68.2098375 773.603211,68.2098375 C774.704128,68.2098375 776.114679,68.6498195 777.594037,69.3605596 C777.938073,69.5297834 778.178899,69.5974729 778.557339,69.5974729 C779.727064,69.5974729 780.655963,68.717509 780.655963,67.566787 C780.655963,66.6868231 780.174312,66.0099278 779.417431,65.6376354 C777.62844,64.7576715 775.633028,64.25 773.706422,64.25 C769.990826,64.25 766.963303,66.3145307 766.963303,70.0036101 L766.963303,70.0712996 C766.963303,73.5911552 769.887615,74.775722 772.46789,75.5203069 C774.497706,76.1295126 776.286697,76.5018051 776.286697,77.6186823 L776.286697,77.6863718 C776.286697,78.4986462 775.598624,79.0401625 774.084862,79.0401625 C772.605505,79.0401625 770.850917,78.4986462 769.09633,77.4156137 C768.821101,77.2463899 768.442661,77.1448556 768.06422,77.1448556 C766.894495,77.1448556 766,78.0248195 766,79.1755415 C766,79.9878159 766.447248,80.5970217 766.997706,80.9354693 C769.233945,82.3569495 771.676606,83 773.947248,83 Z M787.25,71.75 L794.75,71.75 C794.45524,69.5131579 793.145197,68 791.049127,68 C788.985808,68 787.643013,69.4802632 787.25,71.75 Z M797.842734,80.8158602 C796.270076,82.1599462 794.228967,83 791.619025,83 C786.231836,83 782.25,79.202957 782.25,73.6922043 L782.25,73.625 C782.25,68.483871 785.897228,64.25 791.117113,64.25 C797.106597,64.25 799.75,69.1895161 799.75,72.9193548 C799.75,74.3978495 798.712715,75.3723118 797.374283,75.3723118 L787.302581,75.3723118 C787.804493,77.6908602 789.410612,78.9005376 791.685946,78.9005376 C793.0913,78.9005376 794.262428,78.4637097 795.299713,77.6908602 C795.667782,77.422043 796.00239,77.2876344 796.537763,77.2876344 C797.67543,77.2876344 798.51195,78.1612903 798.51195,79.3037634 C798.51195,79.9758065 798.210803,80.4798387 797.842734,80.8158602 Z" id="meanwise"></path>
        </g>
    </g>
</svg>