<?xml version="1.0" encoding="UTF-8"?>
<svg width="233px" height="60px" viewBox="0 0 233 60" version="1.1" xmlns="http://www.w3.org/2000/svg" xmlns:xlink="http://www.w3.org/1999/xlink">
    <!-- Generator: Sketch 52.2 (67145) - http://www.bohemiancoding.com/sketch -->
    <title>Group 11</title>
    <desc>Created with Sketch.</desc>
    <g id="Page-1" stroke="none" stroke-width="1" fill="none" fill-rule="evenodd">
        <g id="Group-11" fill="#DD5655" fill-rule="nonzero">
            <path d="M32,0 L32,12.90625 L27.3623188,12.90625 C22.2608696,12.90625 19.0144928,13.828125 17.1594203,15.2109375 C15.3043478,17.0546875 14.3768116,20.28125 14.3768116,24.890625 L14.3768116,59 L0,59 L0,25.3515625 C0,15.671875 2.31884058,9.21875 6.49275362,5.53125 C10.6666667,1.84375 18.0869565,0 28.7536232,0 L32,0 Z" id="Shape"></path>
            <path d="M89,33.6923077 L52.2432432,33.6923077 L52.2432432,38.3076923 C52.2432432,44.7692308 55.9189189,48 63.7297297,48 C71.0810811,48 74.7567568,45.6923077 74.7567568,41.0769231 L74.7567568,40.6153846 L88.5405405,40.6153846 L88.5405405,42.4615385 C88.5405405,52.6153846 79.8108108,60 63.2702703,60 C46.2702703,60 38,52.1538462 38,39.6923077 L38,20.7692308 C38,7.84615385 46.7297297,0 63.2702703,0 C79.8108108,0 88.5405405,7.84615385 88.5405405,20.7692308 L88.5405405,33.6923077 L89,33.6923077 Z M52.2432432,24.4615385 L74.7567568,24.4615385 L74.7567568,21.2307692 C74.7567568,14.7692308 71.0810811,11.5384615 63.2702703,11.5384615 C55.4594595,11.5384615 51.7837838,14.7692308 51.7837838,21.2307692 L51.7837838,24.4615385 L52.2432432,24.4615385 Z" id="Shape"></path>
            <path d="M95,41.0769231 C95,30 102.407407,24.4615385 117.222222,24.4615385 C122.777778,24.4615385 127.407407,24.9230769 131.111111,26.3076923 L131.111111,21.6923077 C131.111111,18.9230769 130.185185,16.6153846 128.796296,14.7692308 C126.944444,13.3846154 124.62963,12.4615385 120.925926,12.4615385 C114.444444,12.4615385 110.740741,14.7692308 110.740741,19.3846154 L96.8518519,19.3846154 C96.8518519,6.46153846 104.259259,0 120.462963,0 L122.314815,0 C137.12963,0 145,7.84615385 145,20.7692308 L145,40.6153846 C145,53.5384615 135.740741,60 120.462963,60 L118.611111,60 C103.796296,60 95,53.5384615 95,41.5384615 L95,41.0769231 Z M131.111111,40.6153846 C131.111111,35.0769231 128.333333,32.7692308 120.462963,32.7692308 C113.055556,32.7692308 109.814815,35.0769231 109.814815,40.6153846 L109.814815,41.5384615 C109.814815,46.6153846 113.518519,49.3846154 120.462963,49.3846154 C127.407407,49.3846154 131.111111,46.1538462 131.111111,41.5384615 L131.111111,40.6153846 Z" id="Shape"></path>
            <path d="M166.267045,59 L152,59 L152,19.511811 C152,7.43307087 159.363636,0 173.630682,0 C182.375,0 188.357955,2.32283465 192.5,7.43307087 C196.642045,2.32283465 202.164773,0 211.369318,0 C226.096591,0 233,7.43307087 233,19.511811 L233,59 L218.732955,59 L218.732955,20.9055118 C218.732955,15.3307087 215.511364,12.5433071 209.528409,12.5433071 C203.545455,12.5433071 200.323864,15.3307087 200.323864,20.9055118 L200.323864,59 L186.056818,59 L186.056818,20.9055118 C186.056818,15.3307087 182.835227,12.5433071 176.852273,12.5433071 C170.409091,12.5433071 167.647727,15.3307087 167.647727,20.9055118 L167.647727,59 L166.267045,59 Z" id="Shape"></path>
        </g>
    </g>
</svg>