<?xml version="1.0" encoding="UTF-8"?>
<svg width="1000px" height="1480px" viewBox="0 0 1000 1480" version="1.1" xmlns="http://www.w3.org/2000/svg" xmlns:xlink="http://www.w3.org/1999/xlink">
    <!-- Generator: Sketch 52.2 (67145) - http://www.bohemiancoding.com/sketch -->
    <title>illustrations-01 (1)</title>
    <desc>Created with Sketch.</desc>
    <g id="Page-1" stroke="none" stroke-width="1" fill="none" fill-rule="evenodd">
        <g id="illustrations-01-(1)">
            <path d="M11.2328767,1358.08219 C6.57534247,1350.41096 5.47945205,1341.09589 7.94520548,1332.32877 C14.2465753,1307.94521 29.5890411,1288.49315 32.8767123,1283.56164 C41.9178082,1270.68493 52.0547945,1281.91781 67.9452055,1276.71233 L106.575342,1253.9726 C117.260274,1250.41096 120,1250.9589 123.561644,1261.64384 C127.123288,1272.32877 141.369863,1287.39726 130.684932,1290.68493 L75.890411,1310.9589 C69.3150685,1314.79452 47.6712329,1323.28767 33.4246575,1333.42466 C28.2191781,1337.26027 24.109589,1342.73973 22.1917808,1349.0411 C20.8219178,1353.15068 19.1780822,1358.08219 17.8082192,1360.27397 C17.8082192,1360.54795 13.4246575,1361.91781 11.2328767,1358.08219 Z" id="Path" fill="#F1C1BC"></path>
            <path d="M116.438356,1245.20548 L280,1131.50685 C304.109589,1114.79452 323.835616,1092.32877 336.986301,1066.30137 C360,1021.36986 378.630137,967.39726 389.041096,945.479452 C450.410959,816.438356 471.506849,853.150685 535.342466,891.780822 C535.342466,891.780822 624.657534,887.123288 618.356164,895.616438 L609.863014,938.630137 C592.876712,1024.65753 541.369863,1099.72603 467.39726,1146.84932 C456.986301,1153.42466 445.753425,1160.54795 433.424658,1168.76712 C417.534247,1179.17808 318.90411,1219.17808 301.643836,1226.30137 L145.205479,1290.41096 C114.520548,1305.47945 94.5205479,1255.89041 116.438356,1245.20548 Z" id="Path" fill="#1A2E7B"></path>
            <path d="M934.794521,1471.23288 L919.178082,1475.06849 C912.60274,1476.71233 905.753425,1475.89041 900,1472.60274 C886.30137,1464.93151 896.438356,1453.69863 889.863014,1438.35616 L863.561644,1402.19178 C858.90411,1391.78082 859.178082,1389.0411 869.589041,1384.65753 C880,1380 893.424658,1364.38356 898.082192,1374.79452 L923.287671,1427.39726 C929.041096,1435.34247 958.630137,1448.76712 970.410959,1450.9589 C970.410959,1450.9589 984.931507,1452.60274 989.589041,1454.79452 C998.082192,1458.35616 992.328767,1465.20548 979.452055,1469.0411 C974.520548,1470.41096 969.589041,1470.68493 964.383562,1470.13699 L961.369863,1469.58904 C952.328767,1467.67123 943.287671,1468.49315 934.794521,1471.23288 Z" id="Path" fill="#F1C1BC"></path>
            <path d="M518.082192,945.205479 L430.684932,1066.30137 C402.191781,1105.75342 365.753425,1138.63014 323.835616,1162.73973 L138.630137,1268.76712" id="Path" stroke="#224D9A" stroke-width="2" stroke-linecap="round" stroke-dasharray="4,7"></path>
            <path d="M853.150685,1406.0274 C853.150685,1406.0274 742.465753,1255.06849 630.136986,1179.45205 C569.589041,1138.90411 532.054795,1119.17808 504.383562,1107.94521 C355.068493,1048.21918 323.287671,915.068493 410.958904,835.342466 L603.013699,890.410959 C603.013699,890.410959 577.534247,945.753425 621.09589,983.561644 C649.315068,1007.94521 681.09589,1031.50685 734.794521,1084.10959 C834.520548,1181.91781 903.287671,1363.83562 903.287671,1367.94521 C903.561644,1368.21918 853.69863,1406.84932 853.150685,1406.0274 Z" id="Path" fill="#54B8C5"></path>
            <path d="M647.945205,777.534247 C645.479452,789.589041 642.191781,806.027397 636.986301,827.39726 C636.164384,830.958904 635.616438,834.520548 635.342466,838.356164 L564.931507,805.479452 C560.821918,803.561644 538.630137,795.068493 530.136986,789.863014 C528.493151,788.767123 529.041096,786.30137 530.958904,786.30137 C537.534247,786.027397 548.219178,789.041096 549.041096,786.575342 C550.410959,783.287671 516.712329,769.863014 517.808219,764.657534 C519.178082,759.452055 549.315068,770.410959 550.684932,767.123288 C551.780822,764.657534 513.972603,746.575342 517.808219,740.821918 C521.917808,734.794521 553.150685,756.164384 556.438356,749.315068 C558.082192,745.753425 532.328767,730.958904 540.273973,725.479452 C542.739726,723.835616 583.835616,754.794521 588.219178,752.328767 C593.69863,749.315068 586.849315,743.835616 587.671233,734.794521 C587.945205,731.780822 592.876712,732.328767 593.424658,735.342466 L594.246575,736.986301 C601.09589,748.493151 611.232877,758.082192 623.287671,764.383562 L647.945205,777.534247 Z" id="Path" fill="#B4D9C9"></path>
            <path d="M52.8767123,1311.78082 L56.7123288,1317.53425 C58.0821918,1319.45205 57.260274,1322.19178 55.0684932,1323.28767 C48.2191781,1326.57534 41.6438356,1330.13699 35.890411,1333.9726 C29.8630137,1338.08219 25.4794521,1344.10959 23.0136986,1350.68493 C21.9178082,1353.69863 20.8219178,1356.9863 19.4520548,1359.72603 C18.3561644,1362.19178 15.6164384,1363.28767 13.1506849,1362.19178 C12.0547945,1361.64384 11.2328767,1361.09589 10.4109589,1360 C5.20547945,1351.78082 3.83561644,1341.91781 6.57534247,1332.60274 C13.9726027,1306.57534 31.2328767,1285.75342 35.0684932,1280.82192 C40.8219178,1273.15068 46.5753425,1273.42466 53.9726027,1274.24658 C56.7123288,1274.52055 57.8082192,1277.80822 55.3424658,1279.45205 L53.6986301,1280.54795 C49.3150685,1283.56164 46.3013699,1288.21918 45.2054795,1293.42466 L42.739726,1306.30137 C42.1917808,1309.58904 45.7534247,1312.32877 49.3150685,1310.9589 C50.4109589,1310.41096 52.0547945,1310.68493 52.8767123,1311.78082 Z" id="Path" fill="#FBFCDE"></path>
            <path d="M931.506849,1439.17808 L934.794521,1433.15068 C935.890411,1430.9589 938.630137,1430.41096 940.821918,1431.78082 C947.123288,1436.16438 953.424658,1440.54795 959.726027,1443.83562 C966.30137,1447.39726 973.69863,1448.49315 980.821918,1447.39726 C984.109589,1446.84932 987.671233,1446.30137 990.684932,1446.0274 C993.424658,1445.75342 995.890411,1447.67123 995.890411,1450.41096 C995.890411,1451.50685 995.890411,1452.60274 995.068493,1453.9726 C990.136986,1462.73973 981.917808,1468.76712 972.328767,1470.9589 C945.479452,1476.9863 909.315068,1474.24658 903.013699,1473.42466 C893.424658,1472.05479 891.232877,1473.42466 888.493151,1466.57534 C887.945205,1464.93151 886.575342,1458.90411 886.849315,1454.24658 C886.849315,1451.23288 889.863014,1449.0411 892.876712,1449.86301 C899.726027,1452.05479 914.520548,1455.61644 930.958904,1450.9589 C934.246575,1450.13699 934.794521,1445.20548 932.054795,1443.0137 C931.232877,1441.91781 930.958904,1440.27397 931.506849,1439.17808 Z" id="Path" fill="#FBFCDE"></path>
            <path d="M299.178082,660 C270.958904,662.739726 241.917808,658.630137 215.068493,647.671233 C183.287671,634.520548 147.123288,639.452055 120.821918,661.643836 L119.178082,663.013699 C86.3013699,690.958904 69.8630137,656.986301 42.739726,623.287671 C16.7123288,590.684932 -10.4109589,572.054795 21.369863,544.931507 L57.260274,514.520548 C117.260274,463.835616 204.657534,459.178082 269.589041,503.561644 C277.260274,508.767123 287.671233,508.767123 295.068493,503.013699 L329.863014,477.260274 C372.328767,446.027397 426.849315,435.342466 477.808219,448.493151 C483.561644,449.863014 489.041096,452.60274 493.972603,455.890411 C515.068493,470.410959 558.082192,492.876712 581.643836,486.849315 C591.232877,484.383562 604.931507,474.520548 604.931507,474.520548 C648.767123,449.589041 684.109589,438.90411 713.424658,473.69863 C707.39726,465.753425 740.273973,503.835616 709.863014,537.534247 C686.027397,563.835616 679.452055,566.027397 664.931507,564.657534 L646.849315,574.794521 C640.821918,572.876712 639.452055,583.287671 633.972603,586.30137 L605.205479,589.863014 C562.739726,613.972603 512.054795,619.452055 465.479452,604.657534 C443.287671,597.534247 419.178082,601.643836 400.547945,615.616438 L386.30137,626.027397 C360,645.753425 329.863014,656.712329 299.178082,660 Z" id="Path" fill="#000000"></path>
            <path d="M504.109589,880.273973 C504.109589,880.273973 511.232877,920.821918 481.369863,961.09589" id="Path" stroke="#F9F0E2" stroke-width="2" stroke-linecap="round" stroke-dasharray="4,7"></path>
            <path d="M764.657534,776.712329 C761.09589,723.287671 731.232877,675.616438 705.753425,646.575342 C697.808219,637.260274 685.205479,627.123288 673.69863,618.90411 C669.315068,615.068493 663.835616,611.232877 658.082192,607.39726 C633.972603,592.328767 600,580 569.589041,576.164384 C569.041096,575.890411 566.849315,575.616438 563.561644,575.616438 C559.452055,575.342466 555.342466,575.068493 551.506849,575.068493 C533.424658,574.520548 505.479452,575.616438 486.575342,582.739726 C450.410959,596.438356 384.109589,639.452055 355.342466,684.657534 C347.123288,697.534247 338.082192,710.136986 350.958904,718.356164 C354.520548,720.547945 392.054795,740.547945 409.589041,744.383562 C397.260274,770.684932 383.561644,801.09589 371.506849,833.150685 C363.561644,853.69863 578.630137,902.191781 613.424658,903.561644 C645.479452,904.657534 633.150685,869.041096 635.616438,838.630137 L565.205479,805.753425 C561.09589,803.835616 538.90411,795.342466 530.410959,790.136986 C528.767123,789.041096 529.315068,786.575342 531.232877,786.575342 C537.808219,786.30137 548.493151,789.315068 549.315068,786.849315 C550.684932,783.561644 516.986301,770.136986 518.082192,764.931507 C519.452055,759.726027 549.589041,770.684932 550.958904,767.39726 C552.054795,764.931507 514.246575,746.849315 518.082192,741.09589 C522.191781,735.068493 553.424658,756.438356 556.712329,749.589041 C558.356164,746.027397 532.60274,731.232877 540.547945,725.753425 C543.013699,724.109589 584.109589,755.068493 588.493151,752.60274 C593.972603,749.589041 587.123288,744.109589 587.945205,735.068493 C588.219178,732.054795 593.150685,732.60274 593.69863,735.616438 L594.520548,737.260274 C601.369863,748.767123 611.506849,758.356164 623.561644,764.657534 L647.945205,777.534247 C653.424658,750.958904 655.342466,746.849315 666.027397,763.013699 C666.575342,769.863014 667.123288,776.986301 667.671233,784.931507 C667.671233,786.30137 669.315068,788.219178 672.328767,790.684932 C687.671233,803.561644 736.986301,827.671233 756.986301,822.191781 C759.726027,821.369863 761.917808,820 763.561644,818.082192 C768.219178,810.958904 765.753425,792.054795 764.657534,776.712329 Z" id="Path" fill="#F3C735"></path>
            <path d="M675.616438,627.123288 C675.616438,627.123288 624.657534,790.684932 432.60274,861.643836" id="Path" stroke="#FBFCDE" stroke-linecap="round"></path>
            <path d="M432.60274,881.369863 C428.493151,881.369863 424.383562,878.90411 422.465753,874.794521 C420,869.315068 422.465753,862.739726 427.945205,860.273973 C649.315068,762.739726 690.958904,632.328767 690.958904,632.328767 C690.958904,632.328767 693.972603,633.69863 701.917808,640.273973 C709.863014,646.849315 708.767123,649.589041 708.767123,649.589041 C708.767123,649.589041 668.493151,778.082192 436.712329,880.547945 C435.342466,881.09589 433.972603,881.369863 432.60274,881.369863 Z" id="Path" fill="#1A2E7B"></path>
            <path d="M372.876712,937.808219 C347.39726,930.410959 332.60274,903.561644 340,878.082192 L349.315068,846.027397 C351.506849,838.082192 360,833.69863 367.671233,835.890411 L431.506849,854.520548 C439.452055,856.712329 443.835616,865.205479 441.643836,872.876712 L432.328767,904.931507 C425.205479,930.684932 398.356164,945.205479 372.876712,937.808219 Z" id="Path" fill="#F9F0E2"></path>
            <path d="M487.39726,922.465753 C479.452055,906.575342 279.726027,521.643836 242.739726,436.438356 C172.876712,277.808219 253.972603,165.205479 333.424658,101.09589 C382.739726,60.2739726 481.643836,10.4109589 500.821918,0.821917808 L585.753425,169.863014 C546.027397,189.863014 477.534247,228.493151 453.424658,248.493151 C388.219178,301.369863 402.465753,333.972603 415.342466,363.561644 C443.561644,427.39726 583.835616,702.191781 654.520548,838.356164 L487.39726,922.465753 Z" id="Path" fill="#DD5655"></path>
            <path d="M763.561644,817.808219 C756.986301,834.794521 743.835616,848.767123 726.849315,855.890411 C709.041096,863.561644 689.041096,863.287671 671.506849,855.068493 L635.342466,838.356164 L564.931507,805.479452 C560.821918,803.561644 538.630137,795.068493 530.136986,789.863014 C528.493151,788.767123 529.041096,786.30137 530.958904,786.30137 C537.534247,786.027397 548.219178,789.041096 549.041096,786.575342 C550.410959,783.287671 516.712329,769.863014 517.808219,764.657534 C519.178082,759.452055 549.315068,770.410959 550.684932,767.123288 C551.780822,764.657534 513.972603,746.575342 517.808219,740.821918 C521.917808,734.794521 553.150685,756.164384 556.438356,749.315068 C558.082192,745.753425 532.328767,730.958904 540.273973,725.479452 C542.739726,723.835616 583.835616,754.794521 588.219178,752.328767 C593.69863,749.315068 586.849315,743.835616 587.671233,734.794521 C587.945205,731.780822 592.876712,732.328767 593.424658,735.342466 L594.246575,736.986301 C601.09589,748.493151 611.232877,758.082192 623.287671,764.383562 L647.671233,777.260274 L672.054795,790.136986 C690.136986,805.479452 752.054795,834.520548 763.561644,817.808219 Z" id="Path" fill="#F1C1BC"></path>
            <path d="M515.890411,877.260274 C516.986301,878.90411 515.068493,880.821918 513.424658,880 C504.383562,875.890411 484.931507,862.465753 481.09589,860 L380,800 C363.561644,790.136986 351.780822,773.69863 347.945205,754.794521 C344.383562,736.712329 344.383562,736.712329 344.931507,711.780822 L481.369863,788.493151 C493.424658,794.794521 506.849315,797.808219 520.273973,796.986301 L521.917808,796.986301 C524.657534,795.890411 527.945205,799.726027 525.479452,801.643836 C518.356164,807.39726 509.863014,804.931507 510.684932,810.958904 C511.232877,815.890411 560,832.60274 560,835.342466 C560,844.931507 533.150685,832.054795 531.232877,835.342466 C527.39726,841.643836 562.739726,855.616438 560,862.465753 C557.534247,868.767123 521.369863,847.671233 519.726027,850.136986 C518.082192,853.150685 544.109589,871.780822 540.273973,875.890411 C536.712329,879.726027 506.575342,859.726027 504.657534,862.739726 C503.835616,864.383562 512.328767,871.506849 515.890411,877.260274 Z" id="Path" fill="#F1C1BC"></path>
            <path d="M724.657534,506.30137 C724.109589,496.164384 725.479452,480 711.232877,491.232877 C709.041096,492.876712 707.945205,502.739726 704.657534,505.479452 C701.09589,508.767123 695.068493,506.575342 691.506849,510.136986 C687.671233,513.972603 684.109589,517.260274 680,518.90411 C675.890411,520.547945 672.328767,519.452055 669.041096,520.821918 C665.753425,522.191781 665.205479,529.041096 663.561644,527.671233 C655.068493,519.178082 644.657534,518.90411 644.109589,527.945205 C643.835616,533.150685 644.657534,535.616438 648.219178,540.547945 C648.493151,540.821918 648.767123,541.369863 649.315068,541.917808 C655.068493,548.219178 658.082192,550.684932 654.246575,558.356164 C647.945205,570.958904 631.506849,575.890411 600,581.643836 C583.013699,584.657534 612.60274,640.273973 658.630137,609.315068 C668.493151,602.739726 672.054795,598.90411 685.753425,584.383562 C689.315068,580.821918 693.972603,575.068493 696.712329,570.410959 C698.90411,566.849315 701.917808,564.109589 705.479452,562.465753 C716.986301,557.534247 720.273973,550.958904 726.575342,534.794521 C727.123288,533.424658 733.69863,532.328767 733.972603,530.684932 C735.068493,523.013699 724.931507,513.150685 724.657534,506.30137 Z" id="Path" fill="#F1C1BC"></path>
            <circle id="Oval" fill="#54B8C5" cx="709.863014" cy="517.534247" r="4.38356164"></circle>
            <path d="M426.575342,880.273973 C445.205479,936.712329 477.534247,966.30137 477.534247,966.30137 C495.068493,992.328767 535.342466,1022.73973 560.547945,1041.09589 C560.547945,1041.09589 653.69863,1110.41096 689.589041,1136.71233 C746.849315,1178.35616 867.945205,1359.72603 867.945205,1359.72603" id="Path" stroke="#F9F0E2" stroke-width="2" stroke-linecap="round" stroke-dasharray="4,7"></path>
            <path d="M353.150685,850.684932 L380.273973,884.109589 C383.835616,888.493151 390.136986,890.410959 395.616438,888.493151 L436.438356,875.068493" id="Path" stroke="#224D9A" stroke-width="2" stroke-linecap="round"></path>
            <circle id="Oval" fill="#DA3343" cx="391.232877" cy="875.342466" r="4.10958904"></circle>
            <path d="M365.479452,945.205479 C365.479452,945.205479 380.547945,952.876712 407.945205,942.191781 L422.191781,976.712329 L405.753425,1038.90411" id="Path" stroke="#F9F0E2" stroke-width="2" stroke-linecap="round" stroke-dasharray="4,7"></path>
            <path d="M894.520548,1352.05479 C888.493151,1361.91781 858.630137,1375.06849 841.369863,1385.20548" id="Path" stroke="#F9F0E2" stroke-width="2" stroke-linecap="round" stroke-dasharray="4,7"></path>
            <path d="M145.205479,1286.57534 C145.205479,1286.57534 113.424658,1276.43836 122.739726,1242.73973" id="Path" stroke="#224D9A" stroke-width="2" stroke-linecap="round" stroke-dasharray="4,7"></path>
            <path d="M940.821918,1480 C916.164384,1480 892.876712,1475.06849 891.232877,1474.52055 C889.041096,1473.9726 887.123288,1464.65753 889.589041,1465.20548 C890.136986,1465.47945 956.986301,1480.27397 982.191781,1463.0137 C987.39726,1459.45205 992.328767,1452.32877 993.424658,1446.30137 C993.69863,1444.10959 1000,1447.67123 999.726027,1450.13699 C998.356164,1458.35616 994.246575,1464.93151 987.123288,1469.86301 C975.342466,1477.80822 957.808219,1480 940.821918,1480 Z" id="Path" fill="#1A2E7B"></path>
            <path d="M14.7945205,1368.21918 C8.49315068,1364.38356 1.64383562,1355.61644 0.821917808,1347.94521 C-2.46575342,1318.08219 33.6986301,1273.69863 35.0684932,1271.78082 C36.4383562,1270.13699 48.2191781,1272.32877 46.8493151,1273.9726 C46.5753425,1274.52055 6.02739726,1320.54795 9.04109589,1346.84932 C9.5890411,1352.32877 14.2465753,1358.35616 18.0821918,1361.64384 C18.0821918,1361.64384 15.6164384,1368.76712 14.7945205,1368.21918 Z" id="Path" fill="#1A2E7B"></path>
            <path d="M957.260274,1453.9726 C954.520548,1445.20548 953.972603,1446.30137 952.054795,1442.19178 C950.958904,1440 950.684932,1439.45205 950.684932,1438.63014 C950.684932,1436.9863 951.232877,1436.16438 953.150685,1435.89041 C954.246575,1435.89041 955.068493,1435.89041 956.164384,1436.43836 C957.260274,1436.9863 957.808219,1438.35616 957.260274,1439.45205 C956.712329,1440.54795 953.424658,1440.27397 952.054795,1442.19178 C950.684932,1444.10959 949.589041,1450.13699 947.39726,1450.9589 C945.205479,1451.78082 942.465753,1450.41096 942.191781,1448.21918 C941.643836,1445.47945 943.561644,1441.91781 949.315068,1442.73973 C956.986301,1443.83562 959.726027,1443.83562 964.931507,1447.39726" id="Path" stroke="#444A6A" stroke-linecap="round"></path>
            <path d="M29.0410959,1333.9726 C37.5342466,1330.68493 36.4383562,1330.13699 40.2739726,1327.67123 C42.1917808,1326.57534 42.739726,1326.0274 43.8356164,1326.0274 C45.4794521,1326.0274 46.5753425,1326.30137 46.8493151,1328.21918 C47.1232877,1329.31507 46.8493151,1330.13699 46.5753425,1331.23288 C46.0273973,1332.32877 44.9315068,1333.15068 43.5616438,1332.60274 C42.4657534,1332.05479 42.4657534,1328.76712 40.2739726,1327.67123 C38.3561644,1326.57534 32.3287671,1325.75342 31.2328767,1323.56164 C30.4109589,1321.36986 31.2328767,1318.63014 33.4246575,1318.08219 C35.890411,1317.26027 40,1319.17808 39.4520548,1324.93151 C38.9041096,1332.87671 39.1780822,1335.34247 35.890411,1340.82192" id="Path" stroke="#444A6A" stroke-linecap="round"></path>
            <path d="M21.6438356,1339.17808 L26.3013699,1343.56164" id="Path" stroke="#444A6A" stroke-linecap="round"></path>
            <path d="M24.3835616,1334.79452 L29.3150685,1339.17808" id="Path" stroke="#444A6A" stroke-linecap="round"></path>
            <path d="M966.849315,1455.34247 L968.219178,1450.41096" id="Path" stroke="#444A6A" stroke-linecap="round"></path>
            <path d="M961.369863,1454.79452 L963.013699,1448.49315" id="Path" stroke="#444A6A" stroke-linecap="round"></path>
            <path d="M656.986301,537.534247 C656.986301,537.534247 685.205479,590.136986 675.342466,624.383562 C674.794521,626.027397 676.712329,626.849315 677.808219,625.753425 C684.657534,617.808219 700.821918,595.342466 701.917808,565.753425" id="Path" stroke="#FBFCDE" stroke-linecap="round"></path>
            <circle id="Oval" fill="#FBFCDE" cx="656.164384" cy="535.068493" r="4.38356164"></circle>
            <path d="M656.986301,536.986301 L660.821918,544.657534" id="Path" stroke="#FAF9DF" stroke-width="1.5" stroke-linecap="round"></path>
        </g>
    </g>
</svg>